<?xml version="1.0" encoding="utf-8"?>
<!-- Generator: Adobe Illustrator 23.0.1, SVG Export Plug-In . SVG Version: 6.00 Build 0)  -->
<svg version="1.1" id="Layer_1" xmlns="http://www.w3.org/2000/svg" xmlns:xlink="http://www.w3.org/1999/xlink" x="0px" y="0px"
	 viewBox="0 0 460.7 153.6" style="enable-background:new 0 0 460.7 153.6;" xml:space="preserve">
<style type="text/css">
	.st0{fill:#5646E2;}
</style>
<g id="Capa_2">
	<g id="Objetos">
		<path class="st0" d="M52.2,104.4c3.9,0,7.7-0.4,11.4-1.4c2.5-0.6,5,0.9,5.7,3.4l3.8,14.8c-7,3.1-18.9,5.6-29.1,5.6
			c-11.2,0-17.8-2.8-22.9-8.5s-7.7-14.3-7.7-25.6V43H0V31.1l0,0c10-6.1,17.7-15.4,21.8-26.4L23.6,0h16.3v21.9h34.3L71.9,34
			c-1.1,5.1-5.6,8.8-10.8,9H39.9v49.7c0,4,1.1,6.9,3.4,8.8C45.8,103.5,49,104.5,52.2,104.4z"/>
		<path class="st0" d="M186.5,73.2c0,16.8-4.4,29.9-13.3,39.3c-8.8,9.5-21.2,14.2-36.9,14.2c-9.9,0-18.6-2.2-26.2-6.5
			c-7.5-4.3-13.6-10.8-17.4-18.7c-4.1-8.1-6.1-17.6-6.1-28.4c0-16.8,4.4-29.9,13.2-39.2s21.1-14,37-14c9.9,0,18.6,2.1,26.2,6.4
			c7.6,4.3,13.6,10.8,17.4,18.6C184.5,53,186.5,62.4,186.5,73.2z M115.3,73.2c0,10.2,1.7,17.9,5,23.1c3.3,5.2,8.8,7.8,16.3,7.8
			c7.5,0,12.9-2.6,16.2-7.8c3.3-5.2,4.9-12.9,4.9-23.2c0-10.2-1.7-17.8-5-22.9s-8.8-7.7-16.3-7.6c-7.5,0-12.9,2.5-16.2,7.6
			C116.9,55.3,115.3,63,115.3,73.2z"/>
		<path class="st0" d="M265.1,126.8c-12.1,0-21.6-4.4-28.5-13.2h-1.5c0.6,5,0.8,9.9,0.6,14.9V146c0,4.2-3.4,7.6-7.6,7.6c0,0,0,0,0,0
			h-19.6V21.9h17.3c3.3,0,6.2,2.2,7.1,5.3l2.4,8.1h1.3c6.6-10.2,16.3-15.3,29.2-15.3c12.2,0,21.7,4.7,28.6,14.1s10.3,22.5,10.3,39.2
			c0,11-1.6,20.5-4.8,28.7c-3.2,8.1-7.8,14.3-13.8,18.5C279.9,124.7,272.6,126.9,265.1,126.8z M256.8,42.5c-6.9,0-12,2.1-15.2,6.4
			s-4.9,11.3-5,21.1v3c0,11,1.6,19,4.9,23.8c3.3,4.8,8.5,7.2,15.6,7.2c12.6,0,18.9-10.4,18.9-31.1c0-10.1-1.6-17.7-4.7-22.8
			C268.2,45,263.4,42.5,256.8,42.5L256.8,42.5z"/>
		<path class="st0" d="M345.4,123.2l-20.4,1.7V27.3c0-4.3,3.5-7.8,7.8-7.8c0,0,0,0,0,0l20.3-2.4v98.3
			C353.1,119.7,349.6,123.2,345.4,123.2z"/>
		<path class="st0" d="M427.1,126.1c-32,2-49.1-14.6-51.3-49.7c-1.1-17.5,2.4-31.1,10.6-40.9c8.1-9.8,17.1-14.2,33.4-15.2
			c11.7-0.7,23.3,2.6,34,8.7c0,0-3.1,9-4.7,12.1c-3,5.4-9.7,7.4-15.2,4.6c-2.8-1.6-10.4-3.5-13.8-2.8c-11.6,2.5-17.1,10.8-15.8,31.5
			c1.3,20.1,9.2,29.7,23.8,28.8c5.4-0.3,9-2.2,13-4.6c1-0.6,1.9-1.2,3-1.8c3.5-2.3,8.2-1.3,10.5,2.1c0.3,0.5,0.6,1,0.8,1.5l5.3,8.9
			c-5.5,6-11.1,10.6-15.5,12.7S434.2,125.7,427.1,126.1z"/>
	</g>
</g>
</svg>
